<?xml version="1.0" encoding="utf-8"?>
<!-- Generator: Adobe Illustrator 20.1.0, SVG Export Plug-In . SVG Version: 6.00 Build 0)  -->
<svg version="1.1" id="Livello_1" xmlns="http://www.w3.org/2000/svg" xmlns:xlink="http://www.w3.org/1999/xlink" x="0px" y="0px"
	 viewBox="0" style="enable-background:new 0 0 74.4 71.4;" xml:space="preserve">
<path d="M34.8,18.3c-9,0-16.3,7.3-16.3,16.3c0,9,7.3,16.3,16.3,16.3c9,0,16.3-7.3,16.3-16.3C51.1,25.6,43.8,18.3,34.8,18.3z
	 M46.1,40.9c-0.6,1.6-1.4,3-2.4,4.2s-2.2,2.2-3.6,2.9c-1.4,0.7-3,1.1-4.9,1.1c-1.5,0-2.7-0.3-3.8-0.8c-1-0.6-1.9-1.3-2.6-2.2
	c-0.7-0.9-1.3-2-1.7-3.2c-0.4-1.2-0.8-2.4-1.1-3.7c-0.3-1.3-0.5-2.6-0.6-3.8c-0.1-1.3-0.3-2.5-0.4-3.6c-0.1-1.1-0.3-2.1-0.4-2.9
	c-0.2-0.8-0.4-1.4-0.6-1.8c-0.2-0.2-0.3-0.3-0.5-0.4s-0.4-0.1-0.6-0.2s-0.4-0.1-0.6-0.2s-0.3-0.2-0.4-0.4c-0.1-0.3-0.1-0.7,0.1-1.1
	c0.2-0.4,0.5-0.9,1-1.3c0.5-0.4,1-0.8,1.6-1.2c0.6-0.3,1.3-0.6,2-0.8c0.7-0.2,1.4-0.2,2.1-0.1c0.7,0.1,1.3,0.4,1.9,0.9
	c0.7,0.6,1.2,1.3,1.5,2.3c0.3,1,0.6,2,0.8,3.2c0.2,1.2,0.3,2.4,0.3,3.8c0,1.3,0.1,2.6,0.1,3.9c0,1.3,0,2.5,0.1,3.7
	c0,1.2,0.1,2.2,0.3,3c0.2,0.9,0.5,1.5,0.8,2c0.4,0.5,0.9,0.7,1.6,0.6c0.3,0,0.7-0.2,1.2-0.5c0.5-0.3,0.9-0.8,1.4-1.4
	c0.4-0.6,0.8-1.5,1.2-2.5c0.4-1,0.6-2.3,0.7-3.9c0.2-1.6,0.2-3,0-4.2c-0.1-1.2-0.3-2.2-0.5-3.1c-0.2-0.9-0.4-1.6-0.6-2.2
	c-0.2-0.6-0.3-1.1-0.3-1.5c0-0.4,0.1-0.8,0.4-1.1c0.3-0.3,0.8-0.6,1.6-1c1.3-0.5,2.4-0.6,3.4-0.3c1,0.4,1.8,1.1,2.4,2.2
	c0.6,1.1,1,2.5,1.2,4.3c0.2,1.8,0,3.8-0.4,6.2C47.2,37.6,46.7,39.3,46.1,40.9z"/>
</svg>
